# xmcd
#
# Track frame offsets: 
#        150
#        19046
#        36845
#        56882
#        78634
#        100454
#        122500
#        139730
#        158254
#        180195
#        205796
#        225043
#        244861
#        266507
#        285108
#
# Disc length: 4059 seconds
#
# Revision: 0
# Processed by: cddbd v1.5.2PL0 Copyright (c) Steve Scherf et al.
# Submitted via: ExactAudioCopyFreeDBPlugin 1.0
#
DISCID=b40fd90f
DTITLE=群星 - DTS 绝响三十CDA
DYEAR=2010
DGENRE=Acid
TTITLE0=错过的情人
TTITLE1=犯错
TTITLE2=万物生
TTITLE3=套马杆
TTITLE4=姑娘我爱你
TTITLE5=擦肩而过
TTITLE6=爱琴海
TTITLE7=情重点
TTITLE8=过去的回忆
TTITLE9=另一种乡愁
TTITLE10=藕断丝连
TTITLE11=遇上你是我的缘
TTITLE12=给我一次疼你的机会
TTITLE13=找一个可以喝醉的理由
TTITLE14=在我心里从此永远有个你
EXTD=
EXTT0=
EXTT1=
EXTT2=
EXTT3=
EXTT4=
EXTT5=
EXTT6=
EXTT7=
EXTT8=
EXTT9=
EXTT10=
EXTT11=
EXTT12=
EXTT13=
EXTT14=
PLAYORDER=
